<?xml version="1.0" standalone="no"?>
<!DOCTYPE svg PUBLIC "-//W3C//DTD SVG 20010904//EN"
 "http://www.w3.org/TR/2001/REC-SVG-20010904/DTD/svg10.dtd">
<svg version="1.0" xmlns="http://www.w3.org/2000/svg"
 width="64.000000pt" height="64.000000pt" viewBox="0 0 64.000000 64.000000"
 preserveAspectRatio="xMidYMid meet">

<g transform="translate(0.000000,64.000000) scale(0.100000,-0.100000)"
fill="#000000" stroke="none">
<path d="M70 614 c-8 -14 -27 -33 -42 -42 l-28 -16 0 -236 0 -237 26 -13 c14
-8 32 -27 40 -42 l15 -28 239 0 239 0 16 30 c8 16 27 33 40 36 l25 6 0 248 0
248 -24 6 c-14 3 -33 20 -43 36 l-17 30 -236 0 -237 0 -13 -26z m177 -176 c7
-6 19 -6 30 0 10 5 55 10 100 10 68 1 84 -2 93 -16 9 -16 11 -16 20 1 8 11 24
17 50 17 49 0 52 -16 14 -84 l-26 -46 26 -46 c38 -68 35 -84 -14 -84 -26 0
-42 6 -50 18 -10 16 -10 16 -20 0 -9 -15 -25 -18 -85 -18 l-75 0 0 96 c0 72
-3 95 -12 92 -9 -3 -14 -34 -16 -96 l-3 -92 -44 0 c-40 0 -44 2 -50 31 -4 17
-5 58 -3 91 2 43 -1 62 -9 65 -10 4 -13 -19 -13 -91 l0 -96 -44 0 c-31 0 -46
5 -50 16 -8 21 -8 229 0 237 10 10 168 5 181 -5z"/>
<path d="M401 320 c0 -42 1 -44 14 -26 8 11 15 23 15 26 0 3 -7 15 -15 26 -13
18 -14 16 -14 -26z"/>
</g>
</svg>
